# xmcd
#
# Track frame offsets: 
#        150
#        14375
#        31342
#        45835
#        59059
#        72380
#        88964
#        106110
#        122492
#        145107
#        162592
#
# Disc length: 2366 seconds
#
# Revision: 2
# Processed by: cddbd v1.5.2PL0 Copyright (c) Steve Scherf et al.
# Submitted via: ExactAudioCopy v0.99pb4
#
DISCID=93093c0b
DTITLE=KT Tunstall - Drastic Fantastic
DYEAR=2007
DGENRE=Pop
TTITLE0=Little Favours
TTITLE1=If Only
TTITLE2=White Bird
TTITLE3=Funnyman
TTITLE4=Hold On
TTITLE5=Hopeless
TTITLE6=I Don't Want You Now
TTITLE7=Saving My Face
TTITLE8=Beauty Of Uncertainty
TTITLE9=Someday Soon
TTITLE10=Paper Aeroplane
EXTD=DISCID 93093C0B
EXTT0=
EXTT1=
EXTT2=
EXTT3=
EXTT4=
EXTT5=
EXTT6=
EXTT7=
EXTT8=
EXTT9=
EXTT10=
PLAYORDER=
